PathFileType	4	(X/Y/Z)	s11c0203.trc
DataRate	CameraRate	NumFrames	NumMarkers	Units	OrigDataRate	OrigDataStartFrame	OrigNumFrames
200	200	4	48	mm	200	750	2000
Frame#	Time	racr			lacr			c7			jug			rlel			rdr			llel			ldr			s2			lic			ric			lasi			rasi			rpsi			lpsi			rgt			lgt			rth1			rth2			rth3			rth4			rlfc			rmfc			rsh1			rsh2			rsh3			rsh4			rlmal			rcal			rtoe			rmt5			lth1			lth2			lth4			lth3			llfc			lmfc			llmal			lcal			lmt5			lsh1			lsh2			lsh3			lsh4			ltoe			SBIKE			LBIKE			RBIKE			
		X1	Y1	Z1	X2	Y2	Z2	X3	Y3	Z3	X4	Y4	Z4	X5	Y5	Z5	X6	Y6	Z6	X7	Y7	Z7	X8	Y8	Z8	X9	Y9	Z9	X10	Y10	Z10	X11	Y11	Z11	X12	Y12	Z12	X13	Y13	Z13	X14	Y14	Z14	X15	Y15	Z15	X16	Y16	Z16	X17	Y17	Z17	X18	Y18	Z18	X19	Y19	Z19	X20	Y20	Z20	X21	Y21	Z21	X22	Y22	Z22	X23	Y23	Z23	X24	Y24	Z24	X25	Y25	Z25	X26	Y26	Z26	X27	Y27	Z27	X28	Y28	Z28	X29	Y29	Z29	X30	Y30	Z30	X31	Y31	Z31	X32	Y32	Z32	X33	Y33	Z33	X34	Y34	Z34	X35	Y35	Z35	X36	Y36	Z36	X37	Y37	Z37	X38	Y38	Z38	X39	Y39	Z39	X40	Y40	Z40	X41	Y41	Z41	X42	Y42	Z42	X43	Y43	Z43	X44	Y44	Z44	X45	Y45	Z45	X46	Y46	Z46	X47	Y47	Z47	X48	Y48	Z48	
750	3.7500	489.273369	1345.997372	-73.396607	524.101486	1337.102053	-351.654763	452.734576	1426.478312	-223.197061	437.731607	1242.854261	-218.327435	534.294249	1102.113477	55.090018	749.892992	961.594881	-76.655812	536.564324	1128.533511	-579.476136	767.523893	957.957170	-459.950352	-117.710869	1198.381254	-293.291485	102.930535	1208.015973	-483.182695	79.845567	1234.607043	-76.456706	136.870934	1140.566058	-458.500753	116.469029	1172.731118	-118.149777	-82.849216	1286.457078	-247.159821	-76.732193	1273.416537	-336.588758	49.396846	1113.018506	-56.178560	4.689902	1060.906815	-487.997544	182.513809	1051.884426	-57.959434	270.808049	1041.533849	-66.156952	341.153556	989.466205	-73.602174	282.904767	1074.174726	-80.010358	441.909128	936.994870	-88.542094	448.774746	909.517120	-218.145592	399.351377	779.324825	-71.982907	388.860930	692.556642	-86.314157	339.095223	621.170216	-82.676958	411.412030	686.477868	-118.843413	278.294752	491.210756	-93.939881	209.507155	471.769038	-137.337488	494.544973	442.612519	-152.225506	430.179576	412.296341	-78.242492	102.112115	944.035227	-501.607415	172.384831	895.238767	-499.596153	201.354886	918.230661	-497.737082	210.596183	814.256717	-489.909796	286.742027	704.509126	-462.261055	313.442927	703.854872	-336.488359	9.534614	375.495227	-421.201925	-56.284176	353.767881	-377.909229	113.527695	236.308462	-450.993369	203.173027	610.718645	-475.095709	171.799368	533.633778	-455.045378	103.281059	478.382640	-445.628225	198.803063	517.984862	-431.519648	213.907888	224.168649	-388.726259	-216.154784	949.421168	-258.529667	-17.999836	80.738281	-460.894024	-18.071448	80.980887	-62.160488	
751	3.7550	488.861050	1347.088908	-74.638688	523.436971	1337.902619	-352.247306	452.056669	1426.953747	-224.018395	437.499401	1243.470108	-218.220547	534.058340	1103.325427	54.075388	749.767238	962.107463	-76.476533	535.926660	1129.268390	-579.612904	767.372714	958.299800	-461.264139	-119.077929	1197.254763	-293.510969	102.253510	1207.198334	-483.115452	79.872209	1232.821209	-76.688175	136.394433	1139.532091	-458.828017	117.058246	1170.259673	-117.763786	-83.414822	1284.801190	-247.514474	-77.277331	1271.930716	-337.042760	49.449656	1109.510119	-57.299191	5.409682	1059.686900	-487.945997	181.204459	1046.275390	-57.755139	270.215974	1034.291218	-66.497523	339.383487	980.359200	-74.630410	283.055189	1066.436636	-80.202363	439.117189	926.052583	-90.122788	444.064262	899.016571	-221.662574	397.347149	767.297425	-72.812046	387.840231	680.594801	-87.441639	339.679921	608.205407	-83.744936	410.385898	674.778488	-120.480755	280.727189	478.727428	-94.918108	211.947490	457.990377	-137.718906	497.961533	435.291057	-152.408137	434.120341	403.757258	-78.416221	105.457468	945.068451	-501.459881	176.690746	897.673726	-499.218473	205.174600	921.080207	-496.942473	216.369739	817.250801	-489.643485	293.421228	709.054007	-462.378810	318.632028	708.311612	-336.378145	9.213153	386.585900	-421.624497	-56.777964	366.848132	-378.513051	109.727439	244.829779	-450.891635	208.182628	616.986179	-475.232202	175.139594	540.693260	-455.035366	105.429682	486.935940	-445.844250	201.734557	524.415970	-431.426639	209.538673	230.190589	-388.382391	-216.148337	949.396247	-258.641030	-18.001037	80.693719	-460.893789	-18.065044	80.957711	-62.170934	
752	3.7600	488.530695	1348.173606	-75.669127	522.605275	1339.049758	-353.401046	451.356027	1427.546837	-224.951897	437.497675	1244.250469	-218.513340	533.946855	1104.475855	52.884642	749.657655	962.532588	-76.436728	535.495789	1129.930763	-579.466031	767.308895	958.436512	-462.627005	-119.839464	1195.852864	-293.806491	101.657043	1206.144999	-482.935782	79.959791	1230.588849	-76.776432	136.003028	1138.495141	-458.993876	117.773490	1167.866287	-117.361489	-84.015188	1283.244323	-247.933523	-77.884078	1270.357759	-337.419673	49.767288	1106.006027	-58.236603	6.228489	1058.543712	-487.769057	181.298586	1040.295128	-58.614501	269.650617	1026.379882	-66.945264	337.577304	971.010820	-75.635332	283.425130	1058.833727	-79.602664	435.599876	914.249382	-90.911713	439.971690	887.497457	-222.584437	395.063321	755.053769	-73.926539	387.129875	667.990503	-89.082118	339.869796	595.065413	-85.135366	409.165375	663.067280	-122.237834	282.887396	466.515706	-95.957968	215.223594	444.069947	-139.182848	500.963627	427.396833	-152.389655	437.618200	394.619830	-78.586162	108.819052	946.255721	-501.261417	180.880200	900.074844	-498.725102	208.909136	924.062671	-496.046546	221.904180	820.311687	-489.315491	299.883012	713.646673	-462.463149	323.484365	712.802971	-336.105674	9.190313	397.766125	-421.681004	-57.322134	379.759349	-378.903954	106.480454	253.835834	-450.746502	213.178635	623.386272	-475.406950	178.525456	547.849397	-455.085745	107.675904	495.462092	-445.897780	204.624157	531.188411	-431.202487	205.612108	236.703128	-387.667747	-216.163424	949.354413	-258.736564	-17.997484	80.668984	-460.900419	-18.067489	80.945051	-62.191574	
753	3.7650	488.302574	1349.356427	-76.670480	521.812072	1340.558449	-354.878596	450.692804	1428.275975	-226.114614	437.718194	1244.807835	-218.904205	533.938223	1105.607417	51.391338	749.594165	962.790935	-76.476222	533.210793	1129.910002	-580.352251	767.425770	958.342260	-463.691339	-120.611869	1194.411845	-294.047698	101.303592	1205.294815	-482.890056	80.160776	1228.299269	-76.714256	135.678463	1137.421463	-458.943389	118.521047	1165.347123	-116.866394	-83.265849	1280.745360	-249.329701	-78.415158	1268.668331	-337.624408	50.289893	1102.389385	-59.068546	7.249187	1057.457108	-487.431872	181.231738	1034.523260	-59.220303	269.061776	1018.334702	-67.373361	335.623053	961.414699	-76.692752	283.655938	1050.764358	-79.506145	432.200387	902.643391	-92.388209	437.613540	875.117788	-219.111489	392.593773	742.724562	-75.070419	385.882741	655.642483	-90.707367	339.654620	582.001965	-86.982490	407.663978	651.166282	-123.827587	284.749442	454.510722	-96.782716	217.188820	431.087464	-139.686550	503.463657	419.062697	-152.292270	440.479175	385.349581	-78.643773	112.182628	947.608925	-501.033675	184.975069	902.557755	-498.283116	212.572306	926.924438	-495.106544	227.252314	823.407293	-488.990274	306.166543	718.239383	-462.463857	328.000372	717.390492	-335.770719	9.627953	408.868788	-421.539219	-57.289174	392.481692	-379.109653	103.862189	262.957903	-450.495084	218.143880	629.859912	-475.316555	181.913876	554.938587	-454.957102	109.963282	504.113593	-445.770801	207.662052	537.830234	-430.926423	202.198032	243.264294	-386.755030	-216.201924	949.331491	-258.834761	-18.010091	80.603777	-460.904434	-18.061488	80.900710	-62.206790	
